<svg width="32" height="32" viewBox="0 0 32 32" fill="none" xmlns="http://www.w3.org/2000/svg">
<path d="M5.33398 8.0013C5.33398 7.64768 5.47446 7.30854 5.72451 7.05849C5.97456 6.80844 6.3137 6.66797 6.66732 6.66797H25.334C25.6876 6.66797 26.0267 6.80844 26.2768 7.05849C26.5268 7.30854 26.6673 7.64768 26.6673 8.0013C26.6673 8.35492 26.5268 8.69406 26.2768 8.94411C26.0267 9.19416 25.6876 9.33464 25.334 9.33464H6.66732C6.3137 9.33464 5.97456 9.19416 5.72451 8.94411C5.47446 8.69406 5.33398 8.35492 5.33398 8.0013ZM5.33398 24.0013C5.33398 23.6477 5.47446 23.3085 5.72451 23.0585C5.97456 22.8084 6.3137 22.668 6.66732 22.668H25.334C25.6876 22.668 26.0267 22.8084 26.2768 23.0585C26.5268 23.3085 26.6673 23.6477 26.6673 24.0013C26.6673 24.3549 26.5268 24.6941 26.2768 24.9441C26.0267 25.1942 25.6876 25.3346 25.334 25.3346H6.66732C6.3137 25.3346 5.97456 25.1942 5.72451 24.9441C5.47446 24.6941 5.33398 24.3549 5.33398 24.0013ZM14.6673 14.668C14.3137 14.668 13.9746 14.8084 13.7245 15.0585C13.4745 15.3085 13.334 15.6477 13.334 16.0013C13.334 16.3549 13.4745 16.6941 13.7245 16.9441C13.9746 17.1942 14.3137 17.3346 14.6673 17.3346H25.334C25.6876 17.3346 26.0267 17.1942 26.2768 16.9441C26.5268 16.6941 26.6673 16.3549 26.6673 16.0013C26.6673 15.6477 26.5268 15.3085 26.2768 15.0585C26.0267 14.8084 25.6876 14.668 25.334 14.668H14.6673Z" fill="#3E3E3E"/>
</svg>
